<?xml version="1.0" encoding="UTF-8"?>
<svg id="Layer_1" data-name="Layer 1" xmlns="http://www.w3.org/2000/svg" viewBox="0 0 1259.43 976.79">
  <defs>
    <style>
      .cls-1 {
        fill: #000;
        font-size: 48px;
        letter-spacing: -.08em;
      }

      .cls-1, .cls-2 {
        font-family: Krub-ExtraLight, Krub;
        font-weight: 200;
      }

      .cls-3 {
        fill: none;
        stroke: #000;
        stroke-linecap: round;
        stroke-linejoin: round;
        stroke-width: 2px;
      }

      .cls-2 {
        fill: #150000;
        font-size: 220px;
        letter-spacing: -.16em;
      }
    </style>
  </defs>
  <path class="cls-3" d="M629.73,414.9c-3.23.65-6.35-.71-9.26-1.37-7.33-1.65-14.68-1.49-22.01-2.17-7.59-.71-15.45-.28-22.72-3.22-3.16-1.28-5.61-3.78-7.8-6.32-3.27-3.79-6.58-7.24-11.95-7.87-1.22-.14-2.54-.53-3.78-1.34-7.03-4.61-15.03-3.09-22.67-2.86-3.4.1-6.54,2.68-10.01,3.71-1.47.44-3.12,1.06-4.53,1.19-4.96.47-8.44,3.04-12.48,5.79-6.82,4.65-12.49,10.44-18.76,15.6-3.22,2.65-6.68,4.7-10.84,5.99.57,4.93,1.47,9.78,3.32,14.48,2.07,5.23,3.29,10.81,3.27,16.37-.04,8.1,1.98,15.76,3.91,23.45,1.77,7.05,3.17,14.19,5,21.19,1.18,4.52.38,8.76.44,13.09.08,5.61.04,11.19.81,16.76.13.97.47,2.34-.38,2.92-2.64,1.8-1.83,4.91-1.53,6.71.45,2.69.9,5.59,1.78,8.28,6.64-1.35,10.92-5.73,15.12-10.41,1.82-2.03,4.2-3.52,2.92-6.76"/>
  <path class="cls-3" d="M313.13,299.06c-10.15,2.38-19.37,6.68-27.97,12.61-11.2,7.73-20.94,17.01-29.65,27.34-3.22,3.81-4.56,9.14-7.99,12.89-6.71,7.34-9.8,16.73-14.84,25.01-1.8,2.96-1.97,6.39-2.62,9.68-1.02,5.18-2.93,10.28-2.16,15.64.68,4.74-2.11,8.84-1.92,13.42.47,11.46-3.36,22.39-3.82,33.88-.47,11.56-1.5,23.57-6.13,34.7-.71,1.71-1.62,2.51-3.08,3.12"/>
  <path class="cls-3" d="M191.33,532.97c-2.61-2.25-5.33-1.63-7.8.03-7.2,4.85-15.05,7.97-23.45,10.16-4.79,1.25-9.24,3.8-13.81,5.84-4.37,1.94-8.63,4.14-13.08,5.86-1.66.64-2.8,1.64-4.07,2.68-6.79,5.52-13.78,10.62-22.69,12.4-2.77.55-5.7,1.28-8.16.5-4.61-1.46-8.54-.14-12.73,1.24-8.74,2.89-17.63,5.09-26.78,6.52-7.96,1.24-15.98,2.19-23.86,3.97-1.82.41-3.43.25-5.24-.33-7.36-2.35-14.72-2.74-21.97.65-2.08.97-4.25,1.95-6.69,1.52"/>
  <path class="cls-3" d="M417.05,470.4c-2.36,12.76-6.42,24.98-11.53,36.88-5.7,13.27-12.83,25.65-21.94,36.91-3.19,3.95-5.75,8.41-8.62,12.62-5.15,7.53-11.85,13.37-19.73,17.89-.71.41-1.44.72-2.24.72-5.86.04-11.27,1.49-16.46,4.35-1.74.96-4.52-.44-6.26,1.62"/>
  <path class="cls-3" d="M93.74,260.33c-4.51,6.24-10.14,11.64-14.12,18.27-2.54,4.23-5.09,8.52-7.03,13.05-2.77,6.47-6.72,12.28-9.81,18.57-2.16,4.4-2.96,9.42-5.93,13.42-3.91,5.26-7.58,10.7-9.96,16.8-1.89,4.85-4.19,9.62-4.92,14.87-.09.63-.05,1.39-.4,1.84-4.74,6.16-6.78,13.73-9.66,20.66-3.25,7.81-6.98,15.89-7.14,24.8-.03,1.74-.94,3.53-1.29,5.24-1.36,6.66-4.62,12.82-4.97,19.72"/>
  <path class="cls-3" d="M150.73,872.66c3.47.22,5.84,2.86,7.65,4.99,4.21,4.94,9.49,8.27,14.71,11.75,12.45,8.29,25.51,15.6,38.01,23.81,9.07,5.95,19.35,9.78,28.59,15.42,7.14,4.36,15.17,6.6,22.52,10.48,5.44,2.88,11.91,3.83,17.78,6.12,8.85,3.46,17.81,6.66,26.81,9.69,5.7,1.92,11.44,3.88,17.49,4.51,3.67.38,6.91,2.13,10.42,3.02,4.05,1.03,8.4.54,12.29,2.23,7.16,3.12,14.76,4.42,22.29,6.23,6.17,1.49,12.17,1.85,18.32,1.9,3.45.03,6.39,2.54,10.08,1.6,2.51-.64,5.2-.57,7.8-.82"/>
  <path class="cls-3" d="M798.45,578.41c-1.07-.44-1.82-1.6-3.37-.79-5.49,2.86-11.29,5.04-17.11,7.11-6.05,2.15-12.54,2.49-18.62,4.48-11.84,3.89-24.26,5.58-36.12,9.35-8.88,2.82-17.98,4.94-26.78,7.92-10.53,3.56-20.88,7.78-30.95,12.54-5.64,2.66-11.64,4.47-17.14,7.43"/>
  <path class="cls-3" d="M354.47,361.26c-.25.25-.5.5-.74.75-4.19,4.22-10.43,5.93-13.77,11.18-3.25,5.11-6.86,10.06-7.48,16.38-.05.52-.45,1.01-.72,1.49-7.1,12.49-9.86,26.23-12.55,40.18-1.73,8.97-3.61,18-6.01,26.89-2.71,10.06-5.12,20.21-6.81,30.52-.39,2.38-.25,4.72-.33,7.08"/>
  <path class="cls-3" d="M222.15,455.83c-4.64-1.64-9.5-3.01-13.87-4.99-4.4-2-7.64-1.65-11.88.53-13.38,6.86-26.04,14.41-37.97,22.56-15.24,10.42-33.45,17.66-49.91,26.74-28.92,15.97-58.05,31.8-79.16,54.11-4.26,4.5-7.8,9.35-12.43,13.69-2.08,1.95-2.61,4.51-2.28,7.06"/>
  <path class="cls-3" d="M837.56,322.9c-3.33,1.34-5.83,3.7-8.22,6.31-4.2,4.57-9.84,6.98-15.25,9.69-3.04,1.52-6.51.96-9.7,1.3-12.52,1.33-24.08,5.69-35.26,10.86-4.43,2.05-8.54,5.63-11.65,9.83-2.58,3.49-5.99,6.06-9.7,8.16-4.07,2.31-6.95,6.03-10.78,8.6-1.07.72-1.27,1.97-1.86,2.98"/>
  <path class="cls-3" d="M862.15,483.43c-2.7.77-5.47.36-8.19.33-2.92-.04-4.82,1.05-5.99,3.76-1.36,3.15-2.86,6.18-3.42,9.68-.53,3.31-3.13,5.84-4.58,8.86-1.13,2.37-2.67,4.61-3.52,7.17-1.36,4.12-5.29,3.67-8.21,3.93-4.34.39-8.48,1.16-12.67,2.34-8.23,2.31-16.71,3.61-24.96,5.93-2.94.83-6.33.25-9.25-.14-5.82-.78-11.29-.39-16.79,1.35-5.59,1.77-11.44,1.6-17.12,1.34-5.95-.27-11.93-.54-17.89-.84-2.46-.12-3.76-2.15-5.95-2.36"/>
  <path class="cls-3" d="M723.22,516.21c2.6-2.39.47-4.61-.43-6.68-2.14-4.94-3.54-10.32-7.08-14.5-3.01-3.54-7.32-4.9-11.86-5.23-2.97-.22-5.96.18-8.95-.35-.92-.16-1.98-.36-2.98.3-6.53,4.28-11.92,9.28-13.48,17.51-.73,3.82-1.89,7.74-3.76,11.12-2.62,4.75-2.96,9.91-3.94,14.97-.16.82.21,1.73.33,2.6"/>
  <path class="cls-3" d="M765.68,835.42c-5.81,4.62-10.04,10.84-15.67,15.61-11.81,10.02-22.5,21.28-34.88,30.71-8.27,6.29-16.34,12.84-25.1,18.43-5.48,3.5-10.81,7.29-16.68,10.21-1.3.65-2.28.17-3.4.28"/>
  <path class="cls-3" d="M538.84,968.39c-8.82,1.86-17.63,3.72-26.44,5.59-.38.08-.79.42-1.11.34-8.03-2.06-15.91.52-23.85.62-6.36.07-12.67.57-19,.81-4.85.18-9.68-.26-14.56-1.19-4.66-.89-9.68-1.26-14.48-.17-7.11,1.63-14.2.76-21.22-.17-3.13-.41-5.97.57-8.96.5-1.04-.02-2.17.25-2.98-.74"/>
  <path class="cls-3" d="M541.08,554.58c-.62-2.08-.34-4.22-.36-6.33-.07-6.6-1.91-12.94-3.12-19.34-1.08-5.75-4.18-10.93-8.89-14.44-4.56-3.39-8.75-7.18-12.88-11-4.55-4.2-10.15-5.78-15.76-6.77-3.36-.59-6.97,1.44-10.02,3.5"/>
  <path class="cls-3" d="M646.11,627.95c-6.04,1.57-11.52,4.53-17.09,7.16-5.12,2.42-10.38,4.35-15.64,6.36-3.77,1.44-7.45,3.2-11.21,4.75-5.76,2.37-11.78,3.5-17.88,4.48-6.85,1.09-13.63,2.75-20.5,3.6-5.84.72-11.81.63-17.47,2.4-2.48.78-5.01.8-7.47,1.42"/>
  <path class="cls-3" d="M360.8,295.34c1.91,2.71,5.2,3.2,7.88,4.33,6.52,2.74,12.57,6.45,19.63,8.18,5.17,1.26,9.42,5.26,13.77,8.43,5.54,4.04,11.55,7.43,16.81,11.85,6.16,5.17,11.68,10.88,16.53,17.4,4.72,6.34,7.03,13.65,10.46,20.5,1.31,2.61,2.5,5.33,3.94,7.9"/>
  <path class="cls-3" d="M18.13,700.96c4.46,7.26,7.83,15.09,11.77,22.6,3.6,6.85,7.64,13.57,11.67,20.24,6.38,10.56,12.87,21.06,19.82,31.24,6.08,8.9,10.36,19.04,18.5,26.55,2.3,2.12,3.53,5.27,4.87,8.14,2.43,5.19,7.1,8.82,9.44,14.1.88,1.99.9,4.18,2.43,6.07,3.56,4.4,8.89,6.67,12.49,11.01.96,1.16,1.86,2.59,3.25,3.44"/>
  <path class="cls-3" d="M412.95,449.54c-2.56-.14-4.74.77-7.17,1.6-4.46,1.54-6.5,4.95-9.29,8.03-3.48,3.84-8.43,5.55-12.92,7.98-9.14,4.95-19.74,7.06-27.64,14.4-1.93,1.79-4.33,1.19-6.69.8-4.92-.81-9.78-2.34-14.9-1.19-2.94.66-5.47,1.43-7.93,3.63-4.65,4.17-9.47,8.29-15.49,10.65-1.69.67-3.15,1.15-5.1.48-1.72,2.7-2.24,5.8-2.68,8.75-.91,6.2-1.35,12.45-2.6,18.63-.77,3.79.8,7.62.74,11.53-.11,6.47-.93,12.83-2.81,18.96-.81,2.63.32,5.48-1.37,7.86"/>
  <path class="cls-3" d="M705.71,392.18c-4.45.97-8.84-.6-13.44.21-12.63,2.22-23.5,7.79-33.96,14.92-5.52,3.76-11.19,7.5-17.38,10.27-1.35.6-2.14,2.34-3.41,3.25-7.05,5.03-14.46,9.48-21.95,13.81"/>
  <path class="cls-3" d="M282.96,403.35c-2.07,2.37-2.91,5.03-2.26,8.2.81,3.93-1.44,7.39-1.92,11.16-.83,6.47-2.66,12.77-3.03,19.37-.23,4.21-1.48,8.35-1.41,12.67.08,5.23-.21,10.46-1.07,15.64-.22,1.31.75,1.93,1.51,2.59,1.6,1.38,1.86,2.95,1.11,4.87-1.39,3.58-1.25,7.87-4.85,10.42"/>
  <path class="cls-3" d="M362.67,360.52c3.17,2.5,5.97,5.39,9.99,6.87,2,.74,3.37,3.23,4.94,5.01,4.84,5.48,10.34,10.4,13.06,17.51,1.02,2.65,2.54,5.22,5.51,6.38.45.18.79.69,1.12,1.09,3.55,4.36,5.58,9.67,8.94,14.15-.29,8.16,6.14,13.32,8.99,20.09,2.33,5.56,3.93,11.26,5.38,17.1.9,3.6,1.72,7.2,2.48,10.84.77,3.65,1.35,7.08.39,10.85-.83,3.28.02,6.65,3.29,8.46,1.65.91,2.89,2.14,4.01,3.47,2.05,2.43,4.48,3.22,7.49,2.57"/>
  <path class="cls-3" d="M417.42,350.84c-3.97.11-6.61-2.94-9.57-4.67-9.27-5.45-18.92-10.1-28.38-15.15-5.93-3.16-11.44-7.12-17.56-9.95-2.42-1.12-4.88-2.35-7.46-2.89-2.16-.45-4.31.86-6.29,1.8-2.99,1.42-6.37,2.36-7.91,5.88-.33.76-1.09,1.83-2.17,1.86-6.46.2-9.62,5.23-12.93,9.42-6.07,7.71-12.26,15.33-18.45,22.94-6.61,8.13-11.01,17.45-15.93,26.52-.51.94-.9,1.91-1.84,2.64-5.08,3.96-6.19,8.38-3.75,14.5,1.04,2.62-1.09,7.08-4.1,8.57"/>
  <path class="cls-3" d="M856.93,527.39c2.61,1.13,2.3,3.4,1.41,5.18-2.16,4.34-2.19,8.94-1.61,13.42.27,2.07.19,2.83-1.67,3.38-6.45,1.91-12.26,4.98-17.13,9.68-2.86,2.75-6.66,3.97-10.12,5.44-7.89,3.37-15.23,7.81-23.01,11.36-1.12.51-2.1,1.28-3.37,1.45-2.63.35-3.54,2-3.35,4.47"/>
  <path class="cls-3" d="M425.61,478.96c-1.9,3.48-2.3,7.39-2.92,11.18-.98,5.9-1.63,11.95-3.89,17.45-3.77,9.19-8.58,17.9-14.79,25.74-6.8,2.89-10.4,9.52-16.02,13.78"/>
  <path class="cls-3" d="M541.08,565.38c-.9-1.63-1.03-3.4-1.15-5.21-.1-1.46-.08-3.39-1.49-4.02-3.09-1.38-3.21-4.25-4.05-6.79-2.04-6.2-2.43-12.78-4.42-19.01-1.69-5.3-4.02-10.02-8.61-13.41-2.15-1.59-3.5-3.95-5.21-5.96-2.41-2.83-4.97-3.28-7.84-1.09-4.84,3.69-7.59,8.75-8.84,14.54-.43,1.99.7,4.09,1.76,5.94"/>
  <path class="cls-3" d="M389.86,556.07c-2.12-.07-3.42,1.26-4.87,2.58-8.79,7.99-17.37,16.36-28.67,20.84-5.84,2.31-11.66,5.03-18.23,4.51-.61-.05-.74.51-1.12.75"/>
  <path class="cls-3" d="M698.26,426.82c-6.19-1.35-12.23.2-18.24,1.2-6.6,1.1-13.01,1.36-18.99-1.99-5.3-2.98-11.08-4.89-16.41-7.78"/>
  <path class="cls-3" d="M4.72,598.9c.81,4.81.22,9.69.68,14.53.99,10.45,2.16,20.86,5.37,30.88.76,2.37,1.23,4.79,1.27,7.11.08,4.64,1.41,9.02,2.51,13.37,1.38,5.49,2.97,11.09,5.88,16.01,3.19,5.4,3.99,11.6,6.56,17.21,3.64,7.94,6.65,16.16,10.22,24.14.9,2,2.84,3.57,4.4,5.24,1.18,1.26,1.46,2.57.73,4.11"/>
  <path class="cls-3" d="M446.84,522.17c.99,8.44,1.77,16.92,3.05,25.32.96,6.32.98,12.75,2.34,19.01.24,1.12.39,2.2-.15,3.36-2.78,5.93-.95,11.91-.02,17.87.64,4.08,2.47,8.06.77,12.31-.33.82-.6,1.29-1.52,1.1"/>
  <path class="cls-3" d="M468.07,513.98c-.28.72-.61,1.48-.36,2.23,3.04,8.94,2.68,18.39,4.2,27.55.97,5.84,1.77,11.62,1.74,17.53,0,1.13.19,2.28-.37,3.35"/>
  <path class="cls-3" d="M193.19,630.19c-1.36-1.21-2.12.32-2.95.79-4.31,2.44-8.92,3.89-13.81,4.36-1.04.1-1.57.6-2.24,1.16-2.89,2.44-6.21,4.43-8.51,7.49-1.12,1.5-2.7,2.26-4.18,2.85-3.15,1.25-4.99,3.65-6.23,6.45-1.39,3.14-2.75,5.36-6.73,6.13-4.52.87-8.88,2.91-13.45,3.86-5.95,1.24-12.09,2.33-17.83-.43-4.18-2.01-8.5-1.27-12.72-1.66-7.8-.71-14.73,2.62-21.59,5.85"/>
  <path class="cls-3" d="M608.12,490.51c-3.83-2.2-4.51-1.9-8.25.66-2.14,1.46-4.57,2.6-6.62,4.21-8.51,6.68-13.77,15.37-15.64,26.05-.14.81-.3,1.49-.7,2.27-1.8,3.55-2.4,7.29-.82,11.14"/>
  <path class="cls-3" d="M361.55,286.77c-4.68-.52-9.07.72-13.41,2.23-2.53.88-5.05,1.4-7.83,1.19-6.47-.5-12.88.29-18.96,2.63-1.3.5-2.48.58-3.76.66-2.14.13-3.65,2.21-2.98,4.09,1.14,3.22,7.25,5.75,10.8,4.47"/>
  <path class="cls-3" d="M182.76,629.81c-7.65-2.04-15.3-4.13-23.09-5.58-4.7-.87-9.32-2.05-14.15-2.32-4.29-.23-6.34.78-7.83,4.91-1.62,4.51-6.17,7.76-11.17,7.81-6.56.07-12.76,1.48-18.64,4.45-2.05,1.04-4.3,1.48-6.68,1.58-4.72.19-8.94,2.41-13.42,3.65-3.91,1.08-7.71.42-11.57-.63-1.57-.43-3.44-.29-5.2.22-1.66.49-3.38,1.46-5.2.42"/>
  <path class="cls-3" d="M129.5,635.03c.03,2.41-1.35,4.21-3.02,5.54-4.8,3.83-9.95,5.55-16.4,3.97-3.99-.98-8.47-.54-12.63.89-2.12.73-4.38,1.01-6.32-.71"/>
  <path class="cls-3" d="M270.29,781.04c-.4-1.21-.9-2.4-.7-3.73-4.49.73-8.26,3.17-12.33,4.85-10.23,4.24-19.77,9.87-29.78,14.57-6.03,2.83-12.23,5.59-17.43,9.75-3.69,2.96-8.14,4.58-11.64,7.7"/>
  <path class="cls-3" d="M358.57,270.76c5.01,2.94,10.39,4.92,16,6.39,2.36.62,4.69,1.73,5.8,4.52-3.26,4.31-8.31,5.03-12.88,6.53-1.79.59-3.66-.21-5.19-1.42"/>
  <path class="cls-3" d="M442.37,533.35c-1.28,4.04,1.1,7.66,1.42,11.54.24,2.99.04,6.09.6,8.92,1.12,5.6-.71,11.81,3.46,16.88.84,1.02,1.95,1.28,2.71,2.15"/>
  <path class="cls-3" d="M722.1,518.45c-2.05.22-3.83-.71-5.57-1.53-1.32-.63-2.52-1.45-2.67-3.3-.42-5.35-3.12-9.65-7.11-12.95-1.97-1.63-3.98-3.22-5.92-4.93-3.87.66-6.88,3.09-10,5.25-1.35.93-2.28,2.39-2.63,4.06-1.54,7.38-4.82,14.13-8.78,20.35-1.93,3.03-2.23,5.94-2.77,9.07"/>
  <path class="cls-3" d="M84.06,671.53c-9.5,3.47-19.07,6.66-29.03,8.66-6.42,1.29-12.79,3.01-19.02,5.12-2.92.99-5.69,2.55-8.94,2.24"/>
  <path class="cls-3" d="M602.35,493.86c2.68-.35,4.86-1.98,7.23-3.05,5.21-2.35,7.12-.96,12.09,1.67,7.75,4.11,11.25,11.96,17.57,17.22,2.61,2.17,4.17,6.17,5.63,9.54,2.44,5.61,5.09,11.17,6.8,17.09.2.69.03,1.48.03,2.23"/>
  <path class="cls-3" d="M215.17,486.79c1.48,4.03-.56,7.75-1.21,11.53-1.16,6.7-3.07,13.26-5.11,19.76-.15.47-.09,1-.21,1.48-.48,1.96,1.43,4.38-.59,5.91-3.51,2.66-7.1,5.38-11.52,6.32-1.88.4-3.46.86-4.86,2.28-3.32,3.39-6.77,6.73-8.45,11.24-.95,2.56-3.38,2.52-4.79,3.84-2.74,2.57-4.9,5.79-6.96,9.09-4.95,7.91-5.86,16.46-5.47,25.4"/>
  <path class="cls-3" d="M425.24,357.91c-3.51.23-4.99-.94-7.84-6.73,1.44-2.57,3.02-2.31,4.87-.36,1.82,1.92,3.49,3.59,3.51,6.72.02,2.22,2.41,3.73,4.25,5.27,5.28,4.44,9.84,9.5,10.8,16.71.32,2.44,1.48,4.63,2.46,6.61,3.23,6.56,4.22,13.6,5.9,20.54,1.26,5.19,1.98,10.43,2.92,15.66,1.09,6.05,1.36,12.19,2.15,18.26.38,2.96.76,5.93.94,8.93.11,1.79,1.16,3.64,2.65,5.37,2.76,3.22,2.73,7.42.91,11.4"/>
  <path class="cls-3" d="M272.16,471.89c-3,4.8-3.25,9.89-1.91,15.28.86,3.46-.72,6.73-1.46,10.04-1.19,5.35-4.02,10.03-6.05,15.01-2.18,5.34-5.42,10.23-6.42,16.25-1.43,8.64-6.73,15.47-13.26,21.22-.58.51-1.56,1.04-2.57.79"/>
  <path class="cls-3" d="M348.14,251.39c1.22.34,2.03,1.22,2.59,2.25,2.53,4.69,4.92,9.46,7.52,14.11.59,1.06.22,2.03-.15,2.57-.46.66-1.57.31-2.52.15-3.19-.53-4.83-2.96-5.83-5.34-1.75-4.19-2.52-8.51-2.3-13.37.25-5.36,1.21-11.25-2.22-16.42-1.48-2.23-3.06-2.62-5.28-1.81-6.19,2.26-11.73,4.84-15.16,11.4-2.07,3.95-3.48,7.36-2.76,11.69.14.83.28,1.25,1.16,1.11"/>
  <path class="cls-3" d="M205.11,818.28c-1.94,4.36-6.47,5.05-10.12,6.55-4.28,1.76-8.23,4.16-12.53,5.91-6.2,2.53-12.47,5.04-18.34,8.35-2.54,1.43-5.25,1.07-7.8-.33"/>
  <path class="cls-3" d="M880.02,580.65c-.74,6.21-.97,12.54-2.37,18.59-1.6,6.93-1.38,14.08-3.72,20.97-1.49,4.38-2.85,9.01-3.59,13.7"/>
  <path class="cls-3" d="M89.65,668.92c-1.41.21-2.79.54-4.34,1.41-2.84-4.37-6.33-2.9-10.22-1.5-7.09,2.54-14.4,4.46-21.56,6.83-3.46,1.15-7.36,1.96-8.58,6.29"/>
  <path class="cls-3" d="M303.07,550.11c3.65,3.62,4.01,8.87,6.56,13.12,3.94,6.56,8.35,12.44,15.08,16.23,1.12.63,1.82,1.42,2.57,2.31"/>
  <path class="cls-3" d="M499.36,538.93c-.67-5.99,2.1-9.95,7.82-11.17.24-.05.64.1.72-.02,3.69-5.13,8.19-1.18,12.31-1.02,1.04.04,2.35.75,2.6,2.16.58,3.24,1.74,6.35,1.89,9.68.19,4.4,1.22,8.42,3.59,12.37,3.3,5.49,3.47,11.93,3.02,18.17-.37,5.14.64,10.17.55,15.28-.02,1.48.2,2.93-.04,4.48-1.03,6.48.31,12.91.51,19.37.24,7.47,2.33,14.83,1.28,22.34-.77,5.49-4.83,8.32-9.32,10.37-6.35,2.9-13.19,3.64-20.08,2.98-4.09-.39-4.59-1.45-4.13-5.52.14-1.23.24-2.53-.02-3.71-1.2-5.59,1.2-10.94,1.03-16.39-.11-3.58.35-7.3-.68-10.79-.66-2.25-.65-4.46-.68-6.72-.05-3.46-.22-6.71-1.65-10.14-1.59-3.81-1.59-8.25-1.11-12.59.22-1.97.12-4.25-.43-6.31-.48-1.79-.46-3.82.32-5.16,3-5.2,1.92-10.05-.48-14.96-.55-1.12-.22-2.2-.08-3.36.17-1.45,1.04-2.97.09-4.46"/>
  <path class="cls-3" d="M298.97,591.82c-2.64,3.97-1.33,8.43-1.43,12.67-.21,9.07.03,18.14.73,27.19.73,9.43.13,18.89.78,28.31.18,2.62-.15,5.53,1.78,7.82.54.64.11,1.47-.08,1.83-1.4,2.8-.38,5.5.07,8.23"/>
  <path class="cls-3" d="M17.76,427.94c-2.88,3.62-2.26,8.24-3.14,12.34-1.31,6.02-1.48,12.28-3.53,18.22-1.62,4.68-2.36,9.54-2.28,14.52,0,.49-.23.99-.35,1.49"/>
  <path class="cls-3" d="M298.6,560.16c2.72.63,4.3,2.3,5.68,4.79,3.15,5.68,6.87,10.89,12.5,14.69,3.97,2.68,7.8,3.82,12.36,2.5"/>
  <path class="cls-3" d="M287.06,443.21c-1.65,4.08-2.45,8.41-3.27,12.68-1.11,5.79-3.32,11.19-5.16,16.73-.29.88-1.31,1.51-1.99,2.25"/>
  <path class="cls-3" d="M306.05,579.53c.39,3.87.67,7.66-.27,11.57-.68,2.82,1.42,5.29,2.59,7.75.7,1.47,1.29,2.87-.13,3.7-3.89,2.28-2.09,5.35-1.44,8.26.67,3,1.48,5.96,2.21,8.94.15.61.29,1.18.03,1.87-2.78,7.39.55,14.04,2.58,20.85"/>
  <path class="cls-3" d="M199.53,816.79c-.74-3.07-2.65-2.8-5.23-2.32-7.36,1.37-12.76,6.56-19.28,9.56-2.16.99-4.31,2.77-6.5,3.73-1.94.86-2.5,1.9-2.89,3.55"/>
  <path class="cls-3" d="M608.87,491.63c.56,2.57-1.17,4.4-2.3,6.29-1.89,3.16-2.34,6.48-2.66,10.08-.59,6.59.13,13.21-.71,19.74-.54,4.22-.72,8.63-4.32,12-2.43,2.28-4.8,4.77-6.13,8.08-.51,1.27-1.79,2.39-3.61,2.72-2.96.53-5.52,2.11-7.83,4.03"/>
  <path class="cls-3" d="M300.46,773.21c-1.99,1.05-3.97-.11-5.96-.04-3.75.13-6.94,2.14-10.37,3.21-7.52,2.35-14.85,5.47-21.97,8.88-3.1,1.49-6.29,2.8-9.38,4.33"/>
  <path class="cls-3" d="M642.02,546.75c2.44-.07,3.67,1.4,4.89,3.32,3.33,5.28,4.87,11.1,5.96,17.15.54,3.01,2.68,5.61,2.23,8.95-.36,2.64-1.17,4.81-3.77,5.95"/>
  <path class="cls-3" d="M296.37,561.65c1.52-.07,1.13,1.06,1.11,1.86-.18,6.83.49,13.68-.39,20.48-.35,2.74.9,5.16,2.12,7.12.7,1.12,3.71.84,5.73.7"/>
  <path class="cls-3" d="M331.38,681.96c-1.24.37-2.48.74-3.72,1.12"/>
  <path class="cls-3" d="M58.36,648.44c-2.18-.05-4.34.24-6.32,1.14-7.83,3.54-16.58,3.14-24.61,5.87-4.35,1.48-8.92,2.3-13.39,3.42"/>
  <path class="cls-3" d="M434.18,965.78c-8.32,1.99-16.62,4.05-24.97,5.88-1.27.28-1.91,1.19-2.96,1.57"/>
  <path class="cls-3" d="M477.01,682.33h-5.6c.01,3.42.12,7.23,2.38,9.56,4.27,4.4,4.17,9.73,4.69,15.03.4,4.08-.68,8.21.37,12.3.3,1.15-.06,2.35-1.11,2.94-3.22,1.81-6.05,4.56-10.45,3.12-2.23-.73-4.78-.12-7.05.99-2.8,1.38-5.37,3.08-8.96,2.44-1.8-.32-3.17,2.44-5.17,3.19-6.44,2.41-12.84,4.92-19.37,7.07-6.88,2.27-13.93,3.94-20.8,6.14-4.12,1.31-7.89,3.28-12.35,2.41"/>
  <path class="cls-3" d="M500.48,643.22c-1.41,1.79-1.84,3.73-1.14,5.97,1.14,3.63.83,7.46,1.02,11.17.29,5.82,2.59,10.97,4.08,16.42,1.65,6.01,2.31,12.21,1.39,18.61-.69,4.75.14,9.69-.77,14.53-.17.92.77,2.43,2.5,2.22,1.48-.17,3.02.27,4.47-.38"/>
  <path class="cls-3" d="M212.93,487.9c-3,3.71-5.33,7.93-7.61,12.04-1.39,2.5-3.67,4.13-4.99,6.81-1.54,3.12-.92,5.32.03,8.67-4.54,4.29-9.98,8.9-6.8,16.81"/>
  <path class="cls-3" d="M348.14,102.77c-3.62-.19-7.02.95-10.42,1.9-5.19,1.46-10.57,2.18-15.65,4.06"/>
  <path class="cls-3" d="M145.15,629.07c2.61-1.52,5.22-.1,7.82.04,5.7.3,11.23,1.62,16.78,2.88,2.27.52,3.82,1.74,5.2,3.41"/>
  <path class="cls-3" d="M358.2,588.47c-1,1.68-1.21,3.61-.3,5.17,1.29,2.2.19,4.26.3,6.38.17,3.37,1.39,6.58,1.21,10.06-.16,3.12,2.1,4.63,5.12,4.09"/>
  <path class="cls-3" d="M208.84,525.52c3.32.9,6.56,1.89,10.03,2.41,4.35.64,8.33,3.06,12.68,4.15,4.64,1.16,9.06,3.03,13.42,4.99"/>
  <path class="cls-3" d="M192.45,824.99c.15-1.24-1.2-1.62-1.1-3.2-3.94,2.2-7.83,2.88-11.22,5.01-4.28,2.7-8.76,4.95-14.12,4.97-3.92.01-6.57,2.82-8.86,5.58-1.11,1.35-2.31,2.87-3.8,2.81-7.31-.27-12.41,5.29-19,6.81"/>
  <path class="cls-3" d="M566.41,548.24c-2.8.28-5.28,1.49-7.84,2.55-5.35,2.23-10.81,4.24-16.74,4.12-1.3-.03-1.86.82-2.61,1.52"/>
  <path class="cls-3" d="M180.9,548.99c1.19,2.93-.68,5.37-1.59,7.78-1.89,4.98-2.85,10.03-2.88,15.31-.02,3.11.25,6.23-.37,9.31"/>
  <path class="cls-3" d="M256.51,525.15c-2.08-.43-3.56.75-4.41,2.27-2.23,3.94-5.71,7.13-7.05,11.54-.38,1.25-1.3,1.74-1.96,2.57-1.33,1.67-2.58,3.67-2.47,5.6.32,5.78-3.9,8.24-7.63,10.71-4.7,3.1-8.28,7.43-12.79,10.77-2.73,2.02-2.36,6.77-1.17,10.14,1.26,3.58,1.71,7.17,2.11,10.85"/>
  <path class="cls-3" d="M231.93,800.78c-6.64,2.02-12.85,5.04-18.99,8.21-1.72.88-3.41,1.18-5.22.36"/>
  <path class="cls-3" d="M869.6,636.89c-1.57,7.24-4.8,13.99-6.32,21.23-1.32,6.31-4.3,11.99-6.72,17.88"/>
  <path class="cls-3" d="M342.93,696.49c-2.66-.1-5.37-.16-7.42,1.89-1.01,1.01-2.4.31-3.38,1.09"/>
  <path class="cls-3" d="M228.21,590.71c-5.24.02-10.28-1.62-15.32-2.19-3.97-.45-6.96-2.76-10.74-3.13-3.48-.33-6.97-.06-10.45-.59-3.74-.57-7.27-1.91-11.15-2.12-3.09-.17-5.89-.15-8.98.4-4.89.86-9.45,2.85-14.48,3.35-4.12.4-7.91,2.88-11.54,5.06-1.88,1.13-2.97,2.92-3.4,5.17-.84,4.46-3.19,8.53-2.35,13.44.48,2.79-1.89,5.38-2,8.53-.07,1.94.39,3.3,1.02,4.85"/>
  <path class="cls-3" d="M420.03,509.51c1.34,3.23.86,6.31.21,9.72-.66,3.46-.95,7.14-.98,10.76-.05,6.33-.16,12.67-.4,18.99-.06,1.61,1.18,2.88.79,4.47"/>
  <path class="cls-3" d="M631.59,529.62c3.48,1.42,5.5,4.24,7.06,7.46.89,1.82,1.63,3.72,2.43,5.58.83,1.94.98,3.62-.89,5.26-2.3,2.02-2.14,6.41.37,8.1,4.79,3.24,4.59,7.88,4.07,12.71"/>
  <path class="cls-3" d="M575.35,960.94c-6.18,2.68-12.69,3.66-19.37,3.71-1.31,0-2.51.39-3.72.76"/>
  <path class="cls-3" d="M531.39,659.24c-3.34.94-6.59,1.84-9.78,3.54-5.05,2.7-10.8,3.98-16.66,3.86-1.25-.03-2.08.54-2.98,1.16"/>
  <path class="cls-3" d="M319.83,294.22c1.3,3.03,4.66,4.42,5.96,7.45,5.71-.09,9.49,6.15,16.06,4.27,5.94-1.7,11.29-3.59,14.05-9.51.97-2.07,2.92-.29,4.13-1.81,1.19-4.11,1.68-8.82,3.75-13.06"/>
  <path class="cls-3" d="M389.11,702.07c1.22,3.41-.54,6.89.58,10.48,1.03,3.32,2.53,4.52,5.75,4.05,1.86-.27,3.72-.5,5.59-.75"/>
  <path class="cls-3" d="M176.43,185.83c-1.95,2.58-4.37,4.45-7.43,5.63-3.38,1.3-5.88,4.07-8.9,6-1.74,1.11-3.4,2.35-5.27,3.27"/>
  <path class="cls-3" d="M372.35,753.47c-2.37,2.69-5.75,4.22-8.92,3.9-4.87-.49-9.43,1.28-14.17.92-3.28-.25-6.46.47-9.69.77"/>
  <path class="cls-3" d="M300.84,679.35c.03,6.09-.42,12.17-.7,18.25-.13,2.74-.21,5.47.81,8.22,1.4,3.76.16,7.68-.13,11.52-.37,4.88-.04,9.69.71,14.54,1.15,7.39,2.99,14.76,1.89,22.34-.2,1.38,1.37,2.04,1.14,3.36"/>
  <path class="cls-3" d="M712.04,512.86c-3.42-2.6-9.51-.51-10.75,3-1.13,3.2-3.06,6.43-1.17,10.04"/>
  <path class="cls-3" d="M342.18,737.27c-2.83.98-2.2,3.79-2.92,5.8-1.7,4.74-2.25,9.69-.34,14.47.71,1.79-1.07,2.17-1.02,3.39"/>
  <path class="cls-3" d="M394.33,395.9c-.64,1.75-.16,3.18.66,4.88,2.33,4.86,5.3,9.29,8.3,13.73.58.85,1.5,1.28,2.59,1.13"/>
  <path class="cls-3" d="M361.55,349.35c-.15,1.58-.91,2.2-2.58,2.7-6.3,1.88-6.46,3.63-4.52,8.48,1.79,4.47.75,7.09-4.12,9.98-1.05.63-1.62,1.23-2.26,2.26-3.42,5.5-7.8,10.29-11.8,15.36-.98,1.24-1.93,1.85-3.41,1.82"/>
  <path class="cls-3" d="M700.87,532.97c-4.6,4.06-2.09,9.16-1.7,13.77.2,2.31.9,5.07,3.19,6.72"/>
  <path class="cls-3" d="M429.71,483.81c-1.77,6.27-1.97,12.61-.74,19"/>
  <path class="cls-3" d="M357.82,730.38c.5,2.48.89,4.99,1.52,7.44.69,2.68.12,5.24-.4,7.83"/>
  <path class="cls-3" d="M151.85,591.45c-3.97,3.67-5.59,8.72-7.83,13.41-.86,1.8-1.67,3.66-3.72,4.47"/>
  <path class="cls-3" d="M328.03,737.09c2.13,3.44,1.98,7.72,4.08,11.18.71,1.18.23,2.55-.05,3.7-.43,1.74-2.34,3.13-.7,5.25,1.67,2.16,3.71,3.03,6.36,2.59"/>
  <path class="cls-3" d="M225.97,151.19c-6.14,1.92-10.96,6.15-16.36,9.36-.75.44-1.5.73-2.27,1.07"/>
  <path class="cls-3" d="M580.56,554.95c-6,1.8-11.31,5.25-17.43,6.96-2.98.83-6.48,2.74-8.27,6.07"/>
  <path class="cls-3" d="M109.02,243.57c-5.18,5.03-9.27,11.05-14.53,16.02"/>
  <path class="cls-3" d="M646.86,575.43c2.12,3.15,5.26,5.73,3.47,10.47-1.48,3.93-5.48,7.83-9.39,6.88-2.58-.63-4.73.44-5.44,1.75-1.68,3.05-4.14,3.16-6.89,3.25"/>
  <path class="cls-3" d="M402.52,544.52c-4.91.36-8.28,3.04-10.81,7.07-1.51,2.4-2.22,4.6-.02,7.11,3.13,3.57,5.04,7.35,4.84,12.65-.11,3.04.49,6.42.39,9.67-.07,2.23.66,4.07,2.25,5.59"/>
  <path class="cls-3" d="M463.23,489.02c2.03,1.55,2.07,4.05,1.72,5.93-.72,3.86.55,7.47.55,11.2,0,.25.46.5.71.74"/>
  <path class="cls-3" d="M604.03,522.92c4.32-.71,8.56-2.23,13.04-1.12,2.35.59,3.67,1.43,3.09,4.49-1.11,5.76.42,11.01,5.15,14.82,1.48,1.19,1.19,2.79,1.82,4.15"/>
  <path class="cls-3" d="M712.04,573.2c-1.67-.6-3.2.55-4.84.37-1.19,3.67-.34,6.78,2.62,8.92,1.65,1.19,3.76,1.82,5.1-.05,1.06-1.49,2.83-3.39.51-5.56-1.21-1.13-3.3-1.76-3.02-4.06"/>
  <path class="cls-3" d="M366.76,624.23c.08,1.76-.41,3.58.71,5.24.33.48-.29,1.33.4,1.84-3.38,4.2-.01,8.2.33,12.3.24,2.85-1.5,5.39-1.82,8.19"/>
  <path class="cls-3" d="M402.89,534.83c-.29,1.12,1.15,2.46-.03,3.31-5.11,3.7-3.62,9.16-4.17,14.18-.39,3.61.16,7.44-1.77,10.81"/>
  <path class="cls-3" d="M330.26,755.71c-2.57.82-5.25.51-7.81.28-3.62-.32-7.1-.51-10.44,1.2-1.42.72-2.97.26-4.47.38-3.28.26-6.38.94-8.57,3.72-2,2.55-5.35,2.86-7.96,4.19-3.21,1.63-6.59,2.96-9.54,5.13-1.12.82-3.25-.91-3.73,1.48"/>
  <path class="cls-3" d="M700.87,427.19c6.33,1.25,12.19,4.89,19,3.72"/>
  <path class="cls-3" d="M530.28,571.71c-2.98-.25-4.96-2.41-5.93-6.71-.31-1.36-.14-2.71-1.88-3.39-3.66-1.43-6.7.79-5.88,4.86.67,3.29-.5,6.48.23,9.71.29,1.3-.93,2.23-1.45,3.34"/>
  <path class="cls-3" d="M135.09,860.37c4,3.91,7.66,8.23,13.03,10.45.57.23,1.12.7,1.13,1.47"/>
  <path class="cls-3" d="M69.16,628.32c-3.96,1.27-7.79,2.91-11.9,3.82-1.53.34-3.46.92-4.12,2.88"/>
  <path class="cls-3" d="M221.87,591.08c.41,2.42-1.01,3.73-2.99,4.45-5.59,2.03-10.24,5.83-15.64,8.21-3.28,1.44-3.53,4.63-4.47,7.46-.88,2.64-1.36,5.69-5.21,5.59"/>
  <path class="cls-3" d="M47.93,764.28c5.29,7.67,10.3,15.56,16.77,22.34,1.73,1.82,2.67,4.72,5.95,4.47"/>
  <path class="cls-3" d="M466.21,405.96c1.45,5.3,2.57,10.73,5.96,15.27"/>
  <path class="cls-3" d="M43.09,652.91c-.23,2-1.1,3.6-2.98,4.46-3.39,1.54-6.36,3.95-10.05,4.85"/>
  <path class="cls-3" d="M707.2,548.24c-4.09,3.93-4.2,9.18-3.93,14.14.19,3.38.59,7.08,2.81,10.07"/>
  <path class="cls-3" d="M778.34,818.66c-2.36,4.44-5.62,8.21-9,11.86-.79.86-1.21,1.99-2.17,2.66"/>
  <path class="cls-3" d="M1.37,551.97c.18,8.44,1.6,16.89,0,25.33"/>
  <path class="cls-3" d="M633.08,597.78c-.24,2.08-.46,4.18-2.98,4.84-3.18.84-6.58,2.18-9.58.55-1.25-.68-1.73-3.32-2.05-5.38-.97-6.23-.98-12.64-3.27-18.64"/>
  <path class="cls-3" d="M313.5,701.33c.07,2.55-.43,4.98-1.04,7.47-.84,3.4.1,6.94.11,10.41,0,1.67,2.19,1.33,3.54.37"/>
  <path class="cls-3" d="M856.19,679.73c-2.07,4.92-3.87,9.96-6.7,14.53"/>
  <path class="cls-3" d="M518.36,527.01c-1.66,5.14.88,11.07,5.59,13.04"/>
  <path class="cls-3" d="M528.04,572.08c-3.21,4.36-3.23,9.46-3.35,14.53"/>
  <path class="cls-3" d="M376.82,724.42c1.86-.27,3.72-.53,5.54-.79,1.63,1.39,2.08,3.49,3.66,5,2.34,2.23.14,3.82-1.82,5q2.35,3.81-.73,7.61c.73.83.92,1.83.79,2.92"/>
  <path class="cls-3" d="M628.24,560.54c-.51,1.33-.5,2.74-.34,4.09.51,4.38.59,8.59-.15,13.08-.83,5,1.49,9.9,4.59,14.11"/>
  <path class="cls-3" d="M289.29,389.57c.69,5.1-.97,9.48-4.1,13.41"/>
  <path class="cls-3" d="M497.5,606.72c-2.47,1.5-1.93,4.01-2.3,6.32-.56,3.48-.15,6.77.81,10.07"/>
  <path class="cls-3" d="M422.26,679.35c1.18.03,2.25-.42,3.37-.68,3.06-.72,5.45,2.01,4.41,5.14-.91,2.74-.04,3.85,2.64,4.55,3.16.83,4.25,4.11,2.62,7.01-2.32,4.11-2.23,8.31.09,12.25,1.17,1.98,1.51,4.13,1.26,5.99-.47,3.46.03,6.79.62,10.06.62,3.48-.7,7.11,1.02,10.45"/>
  <path class="cls-3" d="M298.6,528.13c-1.93,1.48-1.49,3.6-1.48,5.59,0,2.93-.34,5.94,1.48,8.57"/>
  <path class="cls-3" d="M723.59,387.71c-3.84-2-6.7,1.26-10.04,1.94-1.46.3-2.75,1.41-4.11,2.16"/>
  <path class="cls-3" d="M456.53,454.38c-2.79,4.28-2.25,8.63,1.48,12.3.93.91,1.15,2.08,1.13,3.35-.03,3.1,0,6.21-.01,9.31,0,1.36.09,2.6,1.09,3.75,1.68,1.93,3.2,3.89,1.25,6.74-.64.93-.1,2.66-.1,4.03"/>
  <path class="cls-3" d="M722.84,516.96c-.12.62-.44,1.27-.34,1.86.82,5.19-.21,10.61,1.84,15.64.79,1.93.74,3.94.74,5.96"/>
  <path class="cls-3" d="M84.06,645.46c-.65,1.47-1.68,2.22-3.33,2.69-3.24.92-6.78.76-9.76,2.82-1.05.72-2.39-.39-3.51-1.02.24-1.52.41-3.02-.16-4.49"/>
  <path class="cls-3" d="M392.09,716.97c-.52,3.5-.9,6.89.24,10.47.73,2.29.49,5.06-.65,7.39-1.39,2.87-.63,5.54.42,8.2,1.93,4.94,1.7,5.57-3.37,7.06-5.46,1.61-11.07,2.4-16.91,3.17-.23-2.13-.41-3.76-.59-5.38"/>
  <path class="cls-3" d="M398.05,595.92c2.11-.2,1.67,1.34,1.89,2.6.79,4.48,1.27,9.09,2.69,13.38,1.78,5.39,2.24,10.9,2.84,16.43.17,1.6.03,3.23.03,4.84"/>
  <path class="cls-3" d="M401.03,746.77c-.37-1.74-1.42-3.68-.96-5.17.71-2.34.63-4.93,3.83-6.6,4.33-2.26,3.99-5.97.11-11.7"/>
  <path class="cls-3" d="M413.32,719.58c1.64,2.23,3.38,4.12,5.69,5.93,3.24,2.52,6.49,6.48,6.23,11.58"/>
  <path class="cls-3" d="M482.97,711.38c.31,2.79,1.52,5.01,4.1,6.33.25.12.43-.09.76-.36,2.59-2.14,6.03-1.6,8.89-2.72,2.82-1.1,4.13-4.95,7.86-4.74"/>
  <path class="cls-3" d="M341.81,662.59c-2.9,1.87-6.5,2.32-9.02,5.14-2.32,2.58-1.8,4.71-.29,7.15.38.62.75,1.24,1.12,1.86"/>
  <path class="cls-3" d="M506.81,533.72c2.05,3.94,1.08,8.2,1,12.29-.06,2.89-.29,5.53,1.16,8.24.94,1.75,1.45,4.04.03,5.87-.85,1.09-.8,1.97-.31,3.02,1.36,2.93,1.11,5.77-.38,8.57"/>
  <path class="cls-3" d="M509.79,591.82c1.48,1.77.74,3.84.29,5.56-1.21,4.59-2.1,9.09-.71,13.82.44,1.5-.58,2.99-1.06,4.45"/>
  <path class="cls-3" d="M524.69,603.56c-2.59.64-5.51-.62-7.9,1.59-.54.5-1.3.54-1.44,1.57-.57,4.25,1.78,9.03,5.62,11.18"/>
  <path class="cls-3" d="M498.24,526.27c-2.76,1.88-3.25,4.89-3.67,7.83-.24,1.67-.21,3.36-1.17,4.83"/>
  <path class="cls-3" d="M473.66,625.34c1.55,4.47.08,8.94.05,13.41-.02,3.88-1.63,7.63-.8,11.55-.7.83-1.9-.08-2.61.74"/>
  <path class="cls-3" d="M320.21,261.63c1.7,1.32,2.72,4.04,1.41,5.71-3.27,4.16-5.61,9.59-12.21,9.83-1.51.05-3.02,1.08-4.46,1.8-3.71,1.86-7.2,4-11.53,4.62-2.33.33-4.65,2.04-4.16,5.43.47,3.27,2.99,3.32,5.26,3.69,6.78,1.12,13.68.6,20.48,1.52"/>
  <path class="cls-3" d="M401.03,677.12c-4.09.48-7.97-.82-11.92-1.49"/>
  <path class="cls-3" d="M437.53,499.08c2.41,2.21,2.6,4.79,1.75,7.84-.61,2.19.7,4.4.85,6.67.09,1.45.15,3,.45,4.44-2.19,1.47-3.82-.4-4.41-1.51-2.79-5.32-6.56-10.67-2.7-17.05.71-1.16.27-2.25.34-3.37"/>
  <path class="cls-3" d="M629.35,517.33c-1.18-1.41-3.03-2.17-2.4-4.88.48-2.07-1.88-2.08-3.56-2.23-2.39-.21-4.32.47-4.39,3.01-.08,2.89-1.32,5.64-.83,8.56"/>
  <path class="cls-3" d="M311.27,623.85c2.26,1.19,3.19,3.11,3.8,5.57.89,3.58,1.91,7.05,1.49,10.83-.15,1.36-.67,2.18-1.57,2.97"/>
  <path class="cls-3" d="M639.78,556.44c-1.88,4.5-.76,8.65,1.49,12.66"/>
  <path class="cls-3" d="M314.25,683.82c-4.22-.12-8.44-.25-12.66-.37"/>
  <path class="cls-3" d="M450.94,373.93c-3.26.37-1.13,3.12-.93,3.66,1.08,2.94,1.07,6.09,2.05,9.01"/>
  <path class="cls-3" d="M373.1,603.37c-.39-3-.16-6.28-1.6-8.88-2.46-4.45-3.82-9.62-7.9-13.1"/>
  <path class="cls-3" d="M426.73,659.98c-.12.12-.26.36-.37.36-2.48-.15-3.94.97-5.79,2.79-2.02,1.99-2.31,4.32-2.18,6.15.18,2.5-.21,4.99.14,7.47"/>
  <path class="cls-3" d="M414.44,528.88c.02,4-.38,8.17,4.1,10.43"/>
  <path class="cls-3" d="M724.71,563.14c-.37.61-1.07.51-1.48.34-3.7-1.6-6.89-.12-10.07,1.52"/>
  <path class="cls-3" d="M191.33,623.48c-4.34,1.32-6.91,4.83-7.08,9.68"/>
  <path class="cls-3" d="M400.66,669.3c2.1,4.1,5.26,6.42,10.06,5.96"/>
  <path class="cls-3" d="M811.49,769.49c-1.62,3.87-4.63,6.85-6.7,10.43"/>
  <path class="cls-3" d="M713.53,515.09c-2.6,1.04-5.13,2.19-5.94,5.22-.38,1.43-1.78,1.46-2.66,2.19-3.57,2.98-4.23,4.86-2.95,9.35"/>
  <path class="cls-3" d="M419.28,640.24c3.31,2.57,6.92,3.06,10.8,1.49"/>
  <path class="cls-3" d="M355.59,295.34c-2.07-1.72-4.7-1.39-7.09-1.79-1.44-.25-2.86-.31-4.09-1.19"/>
  <path class="cls-3" d="M426.73,362.01c-1.9,2.47-2.21,4.86.38,7.07,1.29,1.1.38,2.96,1.48,4.1"/>
  <path class="cls-3" d="M301.58,592.2c1.35,3.63-.15,8.02,2.98,11.17"/>
  <path class="cls-3" d="M525.43,586.98c-1.1-.96-1.43.55-1.42.74.21,6.25-2.27,12.35-1.14,18.62.42,2.36.81,4.7.67,7.08-.04.61.22,1.17-.29,1.9-4.01,5.8-2.84,12.01-1.17,18.22"/>
  <path class="cls-3" d="M372.72,724.05c-3.4,6.56-3.14,8.57,1.87,13.4,1.41,1.36,2.11,3.21,2.48,4.88.67,3.09,2.21,6.01,1.98,9.29"/>
  <path class="cls-3" d="M321.32,595.17c1.18,6.15.91,12.45,1.88,18.62.18,1.16-1.68,3.04,1.1,3.35"/>
  <path class="cls-3" d="M417.42,553.46c.87.1,1.81-.28,1.95-.16,2.45,9.26,1.38,18.22,3.09,27.02.99,5.1,2.32,10.35,1.89,15.6-.2,2.43.44,4.56,1.39,6.27,2.3,4.15,2.41,8.75,3.57,13.11.88,3.32,1.13,6.82,3.33,9.72.37.49,1.05,1.37.42,2.19-3.02,3.92.03,9.04-2.58,13.06-.3.46-.02,1.16.37,1.45,3.83,2.93,4.62,7.2,5.2,11.57"/>
  <path class="cls-3" d="M751.15,379.89c-1.72,1.29-3.79.37-5.61.53-3.06.26-6.13,1.79-9.3.61-.44-.16-1.17-.24-1.45,0-3.64,3.14-9.12,3.79-11.58,8.53-.39.76-1.09,1.18-1.86,1.49"/>
  <path class="cls-3" d="M325.79,681.21c-3.54-.18-6.96.72-10.43,1.12"/>
  <path class="cls-3" d="M707.2,521.8c1.18,1.4,2.02,3.11,1.43,4.82-1.4,4.04.41,7.99-.02,11.93-.33,2.98-.64,5.97-1.04,8.95"/>
  <path class="cls-3" d="M310.15,113.2c-3.67.7-6.78,2.96-10.43,3.72"/>
  <path class="cls-3" d="M310.52,588.47c.06,2.86,1.41,5.64.42,8.58-.26.76-.64,1.32-1.16,1.85"/>
  <path class="cls-3" d="M501.97,617.15c2.31.06,4.45-.89,6.69-1.25,1.2,2.49,1.35,4.87,0,7.21-2.28,3.98-3.32,4.14-7.85,2.7-1.78-.57-3.4-2.23-5.56-1.4"/>
  <path class="cls-3" d="M478.13,683.82c1.91,3.51,1.7,6.87-.74,10.06"/>
  <path class="cls-3" d="M875.18,508.76c.53-.81.32-1.73.37-2.61.16-2.41-1.18-3.74-3.33-2.91-1.9.73-4.01,1.38-5.24,3.28"/>
  <path class="cls-3" d="M630.84,577.3c1.6,1.06,1.87,2.9,2.53,4.27,1.87.91,3.95.19,5.66,1.32"/>
  <path class="cls-3" d="M401.03,687.55c-3.37.18-6.86-.62-10.06,1.12"/>
  <path class="cls-3" d="M314.99,691.64c-3.02,2.7-3,5.89-1.49,9.31"/>
  <path class="cls-3" d="M507.18,547.13c-3.22-1.53-6.77-.13-10.06-1.12"/>
  <path class="cls-3" d="M314.62,672.28c-1.11,4.35-.08,8.7.07,13.03.17,4.75,2.2,6.33,7,6.33h3.35"/>
  <path class="cls-3" d="M160.04,586.61c-.84,3.68-3.32,5.38-6.71,4.89-1.49-.22-1.69-1.33-2.23-2.28"/>
  <path class="cls-3" d="M413.32,694.62c3.72.72,7.24,2.03,11.24.15,2.96-1.39,5.74.87,8.12,2.83"/>
  <path class="cls-3" d="M364.53,354.56c-.42,4.03-2.16,5.89-5.96,6.33-1.12.13-2.23.25-3.35.37"/>
  <path class="cls-3" d="M108.27,826.85c1.46,3.69,4.02,6.77,5.7,10.37,1.23,2.63,3.67,4.6,6.59,5.64"/>
  <path class="cls-3" d="M540.33,559.42c4.28.92,6.76,4.3,9.68,7.08"/>
  <path class="cls-3" d="M551.88,571.71c.75-1.12,1.49-2.23,2.48-3.71,4.02,3.23,8.44.81,12.79.73"/>
  <path class="cls-3" d="M339.2,731.13c-3.15,1.29-6.46.48-9.68.74"/>
  <path class="cls-3" d="M332.5,760.92c-3.22.45-6.34,2.95-9.72.42-.16-.12-.35.65-.34,1.07"/>
  <path class="cls-3" d="M385.01,626.83c-.94,1.24-1.43,2.87-.67,4.05,1.67,2.56,1.96,5.59,3.28,8.24"/>
  <path class="cls-3" d="M725.08,552.71c-3.03.77-7.06-.46-8.19,4.1"/>
  <path class="cls-3" d="M303.82,713.25c2.13,5.64,2.69,11.58,3.35,17.51"/>
  <path class="cls-3" d="M415.18,632.79c-3.05.94-6.18.81-9.31.74"/>
  <path class="cls-3" d="M404.38,637.26c3.08.66,6.4-.18,9.31,1.49"/>
  <path class="cls-3" d="M439.77,633.91c.87.14,1.73.28,2.55.41,1.16-.73.64-2.45,1.92-3.01,1.43-.62,2.69-.85,3.37,1.11,1.67,4.86,1.7,4.84,6.69,4.85"/>
  <path class="cls-3" d="M321.69,672.28c3.29,4.58,5.92,9.42,5.96,15.27,0,.62.24,1.62-.04,1.8-1.45.9-2.55,2.07-2.14,3.78.52,2.16,1.72,4.09,2.93,5.97"/>
  <path class="cls-3" d="M454.67,696.49c4.25,1.49,6.67,4.06,5.61,8.95-.57,2.65.79,4.21,3.33,4.84"/>
  <path class="cls-3" d="M716.14,517.33c-.56,2.83-1.22,5.71.95,8.18,1.48,1.68-.73,2.7-.58,4.11"/>
  <path class="cls-3" d="M620.04,603.74c-2.57,2.68-5.94,4.24-8.94,6.33"/>
  <path class="cls-3" d="M403.27,720.7c-3.96.22-6.37,3.18-9.31,5.21"/>
  <path class="cls-3" d="M413.69,341.15c1.7,2.76,5,4.49,5.21,8.19"/>
  <path class="cls-3" d="M333.24,585.49c-.25.99-1.04,2.35-.66,2.92,2.42,3.59,1.13,6.99-.04,10.5-.3.89-.37,2.12.01,2.94,1.82,3.92,2.59,7.68.93,12.03-.45,1.17,1.1,3.77,1.81,5.68"/>
  <path class="cls-3" d="M849.48,378.4c-1.91.56-3.72.38-5.62-.29-.75-.26-2.34-.8-2.58,1.04"/>
  <path class="cls-3" d="M317.23,740.06c-.82,4.37-.28,5.08,5.25,6.43-.38,2.9-.76,5.87-1.15,8.84"/>
  <path class="cls-3" d="M474.78,605.6c.64,3.05-2.08,5.83-.74,8.94"/>
  <path class="cls-3" d="M625.26,484.55c-3.05.55-6.21.91-7.45,4.47"/>
  <path class="cls-3" d="M877.04,517.33c-2.79-.17-3.75.94-3.41,3.36.24,1.7,2.31,3.65-.31,5.21"/>
  <path class="cls-3" d="M443.12,588.1c.27,3.6.89,7.17.74,10.8"/>
  <path class="cls-3" d="M400.66,586.05c-2.8,1.71-3.64,3.89-1.91,6.92.39.68.17,1.71.23,2.58"/>
  <path class="cls-3" d="M140.68,613.05c2.65,2.48,1.06,5.7,1.49,8.57"/>
  <path class="cls-3" d="M649.84,539.68c3.16-1.38,6.4-.41,9.27.51,4.4,1.41,7.08,1.26,10.83-2.39,2-1.94,4.08-3.53,7.09-2.97"/>
  <path class="cls-3" d="M440.33,518.82c2.12,2.6-.23,5.88,1.3,8.57"/>
  <path class="cls-3" d="M725.82,541.54c1.11,7.72-.62,15.38-.52,23.09.04,2.59-1.6,5.21-2.46,7.82"/>
  <path class="cls-3" d="M862.52,512.86c-4.05,1.75-5.6,4.48-4.21,8.97.51,1.65.5,3.73-.26,5.55"/>
  <path class="cls-3" d="M101.57,661.85c1.16,1.71,1.75,3.35-.36,4.85-1.3.92-1.68,2.79-3.36,3.34"/>
  <path class="cls-3" d="M448.71,662.59c-5.82-1.29-11.45.27-17.13,1.12"/>
  <path class="cls-3" d="M629.73,560.16c1.3-.05,2.56.14,3.45.8,1.7-.53,2.19-2.2,3.63-2.66"/>
  <path class="cls-3" d="M527.3,627.21c-1.55,2.26-1.6,5.77-5.21,6.33"/>
  <path class="cls-3" d="M866.99,511.74c.12-1.61.25-3.23.4-5.19-1.97.39-4.09.38-4.8,2.61-.41,1.29-.41,3.44.73,3.94,2.23.98,4.09,3.44,7.02,2.37"/>
  <path class="cls-3" d="M628.98,524.78c-2.73.17-5.46-1.06-8.19,0"/>
  <path class="cls-3" d="M709.43,540.05c5.31.93,10.67.71,16.02.74"/>
  <path class="cls-3" d="M199.9,605.6c-3.15-.67-5.27,1.4-7.36,3.09-.59.48-1.02.5-1.58.64"/>
  <path class="cls-3" d="M312.01,604.49c.97,2.6,3.16,5.33-.74,7.45"/>
  <path class="cls-3" d="M347.4,593.68c.36,4.16,1.27,8.36-1.08,12.31-.27.46-.09,1.23-.03,1.84.61,5.59,1.2,11.18,1.88,16.76.12,1,.52,2,1.46,2.61"/>
  <path class="cls-3" d="M433.06,699.09c-2.71.54-5.41,1.15-8.19,1.12"/>
  <path class="cls-3" d="M373.84,349.72c-2.64,1.44-5.83,1.67-8.19,3.72"/>
  <path class="cls-3" d="M433.44,664.08c.05,3.54,3.03,6.65,1.5,10.43-.27.67.41,1.01.71,1.5,2.72,4.49,1.22,8.78-.72,13.02"/>
  <path class="cls-3" d="M509.79,581.39c7.62-3.04,8.35-1.08,9.31,6.33"/>
  <path class="cls-3" d="M456.53,645.46c-1.31-.72-2.74-.48-4.09-.34-2.88.31-3.84,1.77-2.24,4.43"/>
  <path class="cls-3" d="M361.18,614.92c-2.49,2.58-1.34,5.83-.86,8.52.27,1.5-.15,3.37,1.09,5,.73.96.5,3.15-.97,4.36-1.45,1.19-1.82,3.09-2.98,4.47"/>
  <path class="cls-3" d="M458.76,689.04c.18,4.51-3.07,7.83-4.08,11.92-.64,2.59-.64,5.23.02,7.81.29,1.14.96-.24,1.46,0"/>
  <path class="cls-3" d="M873.32,484.18c3.03,1.02,6.26.29,9.31,1.12"/>
  <path class="cls-3" d="M363.78,622.74c2.08,1.38,3.97-.08,5.97-.3,2.58-.29,5.21-.07,7.81-.07"/>
  <path class="cls-3" d="M317.6,691.64c2.12,6.29,2.76,12.94,3.37,19.4.32,3.43,2.15,6.78,1.16,10.41-.47,1.74.43,3.25,2.17,4.08,1.25.6,2.48,1.24,3.73,1.86"/>
  <path class="cls-3" d="M871.46,544.15c-4.28,2.43-9.19,2.23-13.78,3.35"/>
  <path class="cls-3" d="M319.46,262.56c-2.94,3.34-3.01,4.06-.74,7.82"/>
  <path class="cls-3" d="M453.92,624.23c1.66,5.21.05,10.87,2.22,16.02,1.46,3.47.16,7.2.9,10.84.38,1.87-.13,3.93.87,5.96.63,1.28.14,3.02-.93,4.45,1.62.54,3,1,4.38,1.46"/>
  <path class="cls-3" d="M211.07,815.68c-3.43.81-6.68,3.26-10.44,1.14-.33-.18-.8-.07-1.11.35-1.8,2.42-4.79,3.12-7.07,4.85"/>
  <path class="cls-3" d="M452.43,601.51c1.42,7.16,2.48,14.33.74,21.6"/>
  <path class="cls-3" d="M405.87,624.97c2.54.08,5.33-.48,6.7,2.61"/>
  <path class="cls-3" d="M338.83,711.01c-.37.87-.73,1.74-1.12,2.61-2.1,4.72-1.66,6.66,2.23,10.06.53.46,1,.99,1.49,1.49"/>
  <path class="cls-3" d="M309.78,653.28c1.61.18,3.23-1.06,5.08.16-4.4,6.08-1.05,11.32,1.99,16.6"/>
  <path class="cls-3" d="M430.08,664.83c-5.09,3.43-1.64,7.15-.37,10.8"/>
  <path class="cls-3" d="M431.95,717.72c-1.57,5.23-2.94,10.59-7.82,13.97"/>
  <path class="cls-3" d="M374.21,604.86c.62,3.97,1.24,7.95,1.86,11.92"/>
  <path class="cls-3" d="M8.08,475.99c.57,2.7-1.08,4.95-1.49,7.45"/>
  <path class="cls-3" d="M472.92,661.47c-.05,6.85.33,13.72-1.12,20.49"/>
  <path class="cls-3" d="M429.34,554.95c-1.47,2.36-.13,5-.74,7.45"/>
  <path class="cls-3" d="M427.85,612.31c-2.64-.43-4.72.53-6.33,2.61"/>
  <path class="cls-3" d="M519.48,588.47c-.12,2.61.32,5.24-.38,7.82-.7,2.61,1.27,3.25,2.98,4.1"/>
  <path class="cls-3" d="M56.87,635.4c-3.82.04-7.55.63-11.17,1.86"/>
  <path class="cls-3" d="M220.01,585.12c-3.19-.77-6.47-.12-9.69-.69-1.83-.33-3.81-.26-5.2,1.44"/>
  <path class="cls-3" d="M597.69,518.45c-2.79,1.03-5.47,2.19-6.7,5.21"/>
  <path class="cls-3" d="M871.83,484.18c-2.46-.46-4.94-.78-7.45-.74"/>
  <path class="cls-3" d="M503.46,585.12c-1.69,2.2-.91,5.4-2.98,7.45"/>
  <path class="cls-3" d="M806.65,769.86c-1.61,2.36-3.23,4.72-4.84,7.08"/>
  <path class="cls-3" d="M457.27,662.22c0,4.22.06,8.44-.04,12.66-.03,1.09.57,1.58,1.15,2.25.84.96.82,2.97.62,3.24-1.91,2.59-.47,5.3-.61,7.92"/>
  <path class="cls-3" d="M867.73,507.27c4.55.21,8.43,1.79,11.16,5.6.53.74,1.07,1.61.39,2.59"/>
  <path class="cls-3" d="M389.11,628.7c-1.33-3.92-5.35-2.15-7.88-3.62-.86-.5-2.42-1.11-3.82.02-.65,2.42-.67,5.08-.96,7.7"/>
  <path class="cls-3" d="M409.6,647.32c1.16,4.44-.49,8.38-2.23,12.29"/>
  <path class="cls-3" d="M152.22,202.59c-1.99,1.74-3.97,3.48-5.96,5.21"/>
  <path class="cls-3" d="M328.77,711.76c-2.36-.12-4.72-.25-7.08-.37"/>
  <path class="cls-3" d="M761.21,378.77c-2.27,1.83-4.72.12-7.08.37"/>
  <path class="cls-3" d="M726.2,565c1.45.87,3.11,1.47,4.1,3.01-1.42,2.68-3.18,4.82-6.71,4.07"/>
  <path class="cls-3" d="M336.22,619.76c-2.15,1.41-3.07,3.49-1.79,5.16,1.3,1.71,1.33,3.27,1.13,5.27-.42,4.18,1.72,7.39,4.76,10.05"/>
  <path class="cls-3" d="M364.53,357.54c5.48,1.14,7.96,4.11,7.45,8.94"/>
  <path class="cls-3" d="M325.79,635.4c1.87,1.68,1.92,3.28-.41,3.98-3.32.99-2.07,2.23-1.16,4.25,1.42,3.2,3.58,6.1,4.09,10.29-.35.97-1.69,1.75-2.85,2.76-.85.73-1.85,1.96-1.81,2.93.16,4.2-2.58,6.93-4.57,10.06"/>
  <path class="cls-3" d="M449.08,420.86c-.45,3,.81,5.94.37,8.94"/>
  <path class="cls-3" d="M312.38,661.85c-2.38.93-5.2.85-7.08,2.98"/>
  <path class="cls-3" d="M710.18,555.69c1.78,5.45,4.37,10.79,2.23,16.76"/>
  <path class="cls-3" d="M847.62,701.33c-2.16,1.86-2.05,4.81-3.35,7.08"/>
  <path class="cls-3" d="M313.13,720.7c.87,2.7.87,5.55,1.81,8.34.69,2.05,1.14,5.03,1.26,7.68.14,3.16,1.36,3.66,3.96,1.8,1.24-.89,2.52-.75,3.78-1.02,4.22-.91,5.68-2.89,4.8-7.11-.33-1.59-.49-2.99.37-4.49,1.24-2.17-.23-4.45.03-6.69"/>
  <path class="cls-3" d="M376.08,726.28c2.04,1.77,1.05,5.06,3.35,6.7"/>
  <path class="cls-3" d="M865.87,545.26c.74-2.46,3.47-3.84,5.12-2.15,2.38,2.45,4.85,1.96,7.54,1.4"/>
  <path class="cls-3" d="M437.9,531.86c-.08,2.24,1.22,4.55-.37,6.7"/>
  <path class="cls-3" d="M514.63,557.93c1.81-1.1,3.35-2.69,5.73-2.81q-3.44-4.27-7.59-2.04c-.98.53-1.98,1-2.98,1.49"/>
  <path class="cls-3" d="M343.3,308.37c.91,2.19.65,4.45.37,6.7"/>
  <path class="cls-3" d="M260.24,134.06c-2.52.35-4.43,2.08-6.7,2.98"/>
  <path class="cls-3" d="M192.26,609.7c1.55,6.75-.66,13.4-.56,20.11"/>
  <path class="cls-3" d="M621.53,521.8c2.72-2.3,6.23-1.6,7.76,1.89,1.23,2.81,3.05,5.8.48,8.95-.19.24.21.96.33,1.46"/>
  <path class="cls-3" d="M399.91,711.76c-1.99.38-4.28-.87-5.96,1.12"/>
  <path class="cls-3" d="M436.04,517.33c-.48,2.15.37,4.21.37,6.33"/>
  <path class="cls-3" d="M521.71,633.54c-4.11,1.45-7.68,4.18-12.28,4.57-3.45.29-1.9,3.46-2.24,5.49"/>
  <path class="cls-3" d="M510.54,597.04c3.85,1.39,4.32,4.93,5.21,8.19"/>
  <path class="cls-3" d="M384.64,621.25c-2.09-.49-4.22-.35-6.33-.37"/>
  <path class="cls-3" d="M139.19,214.88c-2.11,1.61-4.22,3.23-6.33,4.84"/>
  <path class="cls-3" d="M398.8,621.99c-.52,3.33.61,6.75-.69,10.08-.49,1.25,1.17,2.32,1.06,3.7"/>
  <path class="cls-3" d="M427.48,646.2c-2.03,6.33-3.08,12.46,3.35,17.13"/>
  <path class="cls-3" d="M5.84,485.67c.17,3.72-.35,7.47.37,11.17"/>
  <path class="cls-3" d="M330.63,703.94c-2.12.14-4.33-.45-6.33.74"/>
  <path class="cls-3" d="M683.73,532.23c-1.85,1.55-3.68,3.14-6.33,2.98"/>
  <path class="cls-3" d="M441.63,652.53c.46-.83,1.22-1.54,1.1-2.83-2.09-1.74-4.54-1.52-7.06-.89"/>
  <path class="cls-3" d="M451.69,639.5c-2.49.81-4.4,2.09-5.28,4.82-.67,2.1-3.12,2.79-4.41,4.49"/>
  <path class="cls-3" d="M439.39,391.81c1.72,1.8,3.78,1.75,5.96,1.12"/>
  <path class="cls-3" d="M371.61,571.71c1.14,5.03,3.05,9.96,1.86,15.27"/>
  <path class="cls-3" d="M316.85,641.73c1.99.06,4-.22,5.96.37"/>
  <path class="cls-3" d="M405.5,702.45c.5-.12,1.02-.41,1.49-.35,5.3.76,5.31.77,5.58-4.5.07-1.41.48-2.78.63-4.11.22-2.05,1.17-4.15-.5-6.4-1.44-1.94-.37-4.63-.12-6.99"/>
  <path class="cls-3" d="M440.88,677.49c1.93-1.38,2.1.77,3.16,1.37-1.68,3.08-4.22.5-6.14,1.24"/>
  <path class="cls-3" d="M820.43,756.08c-1.03,1.89-1.59,4.11-3.72,5.21"/>
  <path class="cls-3" d="M402.15,696.86c-1.63,1.94-3.87,1.39-5.96,1.49"/>
  <path class="cls-3" d="M817.08,754.22c-1.7,1.79-3.76,3.27-4.84,5.59"/>
  <path class="cls-3" d="M413.69,728.52c-2.29-1.26-3.92,1-5.96,1.12"/>
  <path class="cls-3" d="M412.58,548.99c.12,1.99.25,3.97.37,5.96"/>
  <path class="cls-3" d="M411.83,702.82c.81,2.17.96,4.54,4.47,4.63,2.42.06,3.26,3.63,1.86,6.17-.51.92-.85,1.67.75,1.49"/>
  <path class="cls-3" d="M546.29,967.64c-2.05-.26-3.96.59-5.96.74"/>
  <path class="cls-3" d="M323.18,725.54c-1.73,3.85-1.7,7.7,0,11.55"/>
  <path class="cls-3" d="M342.55,597.78c1.18.69,1.21,1.81,1.12,2.98s-.07,2.29,1.12,2.98"/>
  <path class="cls-3" d="M335.48,718.09c-4.05,1.59-8.22-.53-12.29.37"/>
  <path class="cls-3" d="M234.16,147.47c-2.23.09-3.88,1.73-5.96,2.23"/>
  <path class="cls-3" d="M504.95,712.87c-1.63,1.92-3.75,1.89-5.96,1.49"/>
  <path class="cls-3" d="M356.33,101.28c-1.99.25-3.97.5-5.96.74"/>
  <path class="cls-3" d="M364.53,99.79c-2.08-.48-3.91.97-5.96.74"/>
  <path class="cls-3" d="M443.86,568.36c-2.34,3-.45,6.48-.96,9.71-.2,1.28.04,2.96.21,4.44"/>
  <path class="cls-3" d="M473.29,566.87c.69,3.72.34,7.45,0,11.17"/>
  <path class="cls-3" d="M401.03,730.01c.65,3.99,2.81,7.7,2.23,11.92"/>
  <path class="cls-3" d="M450.94,657c.23,1.57-.16,3.1-.79,4.45-1.36,2.94-2.46,5.8-.72,8.96.66,1.2.6,2.48.01,3.72"/>
  <path class="cls-3" d="M718.37,546.01c-4.88,2-9.83,2.61-14.9.74"/>
  <path class="cls-3" d="M519.48,543.03c-3.56,1-2.08,4.09-2.58,6.34-.16.71-.02,1.48-.02,2.23"/>
  <path class="cls-3" d="M332.12,706.92c-2.46,3.19-3.58,6.88-4.1,10.8"/>
  <path class="cls-3" d="M392.84,613.8c-1.23-.64-1.56-.3-1.94,1.1-.89,3.32-.06,6.91-1.74,10.1-.32.61-.84.94-1.17,1.46"/>
  <path class="cls-3" d="M307.17,735.97c1.73,1.31,2.66,3.01,2.61,5.21"/>
  <path class="cls-3" d="M452.06,591.08c-1.74.98-3.65,1.13-5.59,1.12"/>
  <path class="cls-3" d="M357.82,353.07c-.03,2.25-2.37,3.43-2.61,5.59"/>
  <path class="cls-3" d="M455.78,623.48h-8.57"/>
  <path class="cls-3" d="M422.26,628.7c2.57,1.91,5.58,1.82,8.57,1.86"/>
  <path class="cls-3" d="M782.44,813.44c-.19,2.26-2.54,3.02-3.35,4.84"/>
  <path class="cls-3" d="M436.42,681.96h-5.59"/>
  <path class="cls-3" d="M510.54,632.42c-1.2,1.67-2.15,3.42-1.86,5.59"/>
  <path class="cls-3" d="M421.14,637.64h-3.03c-.21.16-.41.33-.62.49,2.27,1.77-.19,4.39,1.78,6.21"/>
  <path class="cls-3" d="M422.63,650.3c-.49-.99-.99-1.99-1.49-2.98-4.65,2.64-5.06,3.4-4.47,8.2.33,2.71-2.44,5.98-6.33,7.45"/>
  <path class="cls-3" d="M507.18,582.88c-1.78.81-3.48,1.9-5.59,1.49"/>
  <path class="cls-3" d="M436.04,716.97c-1.49-.07-3.05.72-4.45-.03-2.43-1.29-4.41-.55-5.52,1.56-1.09,2.09-1,4.45,1.43,5.87.41.24.71.55,1.09.79"/>
  <path class="cls-3" d="M248.32,140.02c-1.74.74-3.48,1.49-5.21,2.23"/>
  <path class="cls-3" d="M184.63,178.38c-1.61,1.37-3.23,2.73-4.84,4.1"/>
  <path class="cls-3" d="M320.58,648.44c-1.83-.39-3.46.63-5.21.74"/>
  <path class="cls-3" d="M393.58,635.03c2.03.86,4.51-.23,6.33,1.49"/>
  <path class="cls-3" d="M329.14,743.04c-1.24.25-2.49.72-3.72.69-1.96-.04-2.8.87-2.98,2.66"/>
  <path class="cls-3" d="M871.09,415.65c-.25,1.87,1.49,3.32,1.12,5.21"/>
  <path class="cls-3" d="M4.35,512.49c-.89,2.73.05,5.46,0,8.19"/>
  <path class="cls-3" d="M529.16,615.29c-1.73-.28-3.54.58-5.21-.37"/>
  <path class="cls-3" d="M584.28,958.7c-1.85-.54-3.41.99-5.21.74"/>
  <path class="cls-3" d="M350.75,319.55c.73,1.69.22,3.48.37,5.21"/>
  <path class="cls-3" d="M436.04,695c1.74.38,3.48.7,5.21,0"/>
  <path class="cls-3" d="M526.55,617.52c.7.44.57,1.2.8,1.84.51,1.39.48,2.8-.5,3.67-.85.76-1.97-.23-2.92-.66-.7-.32-1.44-.52-2.23-.38"/>
  <path class="cls-3" d="M456.16,653.65c-2.21.12-3.02,3.25-5.59,2.61"/>
  <path class="cls-3" d="M709.06,550.48c2.34,4.2,2.2,4.54-2.23,5.59-.88.21-1.74.49-2.61.74"/>
  <path class="cls-3" d="M427.85,618.64c-2.05,1.9-5.92.66-7,4.62,1.44,2.83,1.93,5.58-2.24,7.81-2.6,1.39-.87,4.3-.44,6.57"/>
  <path class="cls-3" d="M2.49,589.22c-.13,1.79.25,3.51.74,5.21"/>
  <path class="cls-3" d="M384.64,96.07c-1.83-.39-3.46.63-5.21.74"/>
  <path class="cls-3" d="M397.68,626.09c-3.98,1.45-8.05,2.7-11.55,5.21"/>
  <path class="cls-3" d="M420.77,697.98c-.5.74-1.25,1.43-1.44,2.25-.4,1.73-.15,3.28,2.18,3.34"/>
  <path class="cls-3" d="M403.27,701.7c-1.51.84-3.22,1.02-4.84,1.49"/>
  <path class="cls-3" d="M306.05,676.37c-1.04.58-6.98,2.41-7.82,2.42"/>
  <path class="cls-3" d="M399.91,588.47c1.48,1.22,2.05,3.12,3.35,4.47"/>
  <path class="cls-3" d="M488.56,535.21c2.75,1.41,4.47,3.97,6.7,5.96"/>
  <path class="cls-3" d="M391.35,331.47c2.05,1.54,4.57,2.57,5.59,5.21"/>
  <path class="cls-3" d="M453.55,617.9h-4.84"/>
  <path class="cls-3" d="M717.63,557.93c-.53-.49-.81-1.89-1.84-.72-1.18,1.34-2.66,1.07-4.12,1.1"/>
  <path class="cls-3" d="M410.34,652.16c1.65.21,3.11,1.26,4.84,1.12"/>
  <path class="cls-3" d="M404.01,560.54c1.11.13,1.64.57,1.53,1.87-.15,1.76-.26,3.58.7,5.21"/>
  <path class="cls-3" d="M345.91,744.16c-2.71,4.31-1.69,9.13-1.86,13.78"/>
  <path class="cls-3" d="M635.69,513.23c-2.81-.21-1.66,2.75-2.98,3.72"/>
  <path class="cls-3" d="M718.37,541.17c-.8,1.89.56,3.5.89,5.19.49,2.46.31,3.82-2.38,4.13"/>
  <path class="cls-3" d="M385.76,719.21c1.51.84,3.16,1.2,4.84,1.49"/>
  <path class="cls-3" d="M420.4,609.7c-2.44.88-2.55,3.48-3.59,5.29-.66,1.15-1.08,2.13-2.37,2.53"/>
  <path class="cls-3" d="M422.26,585.12c-1.65-.01-3.29.11-4.84.74"/>
  <path class="cls-3" d="M506.81,505.04c-.37,1.6-1.99,3.09-.37,4.84"/>
  <path class="cls-3" d="M386.88,732.24c1.43,1.41,3.23.45,4.84.74"/>
  <path class="cls-3" d="M114.6,237.98c-1.75.64-2.31,2.75-4.1,3.35"/>
  <path class="cls-3" d="M318.34,699.47c-3.01,1.14-5.98,2.45-9.31,2.23"/>
  <path class="cls-3" d="M485.95,718.83c-2.26.53-3.93,3.19-6.7,1.86"/>
  <path class="cls-3" d="M417.42,626.46c.79,1.4-.04,3.07.74,4.47"/>
  <path class="cls-3" d="M394.33,696.86c1.98,2.67,2.86,5.75,4,8.84,1.61,4.33,1.13,9.95,6.05,12.77"/>
  <path class="cls-3" d="M606.63,602.62c1.4.8,3.07-.06,4.47.74"/>
  <path class="cls-3" d="M475.52,591.45v4.47"/>
  <path class="cls-3" d="M455.41,629.07c1.44.67,2.98.26,4.47.37"/>
  <path class="cls-3" d="M150.73,659.61c-.44,1.39.03,3.11-1.49,4.1"/>
  <path class="cls-3" d="M871.83,511.37c-2.95-.96-5.06.22-6.7,2.61"/>
  <path class="cls-3" d="M715.02,547.87c1.15,1.61,2.05,3.34.71,5.19-.97,1.33.37,1.57.78,2.26"/>
  <path class="cls-3" d="M417.05,564.63c-.18,2.53,1.89,2.18,3.35,2.61"/>
  <path class="cls-3" d="M424.87,711.38c.07,2.09-.17,4.26,1.49,5.96"/>
  <path class="cls-3" d="M730.29,540.42c-1.58.63-3.23.28-4.84.37"/>
  <path class="cls-3" d="M823.41,382.12c2.57.97,4.83-.04,7.08-1.12"/>
  <path class="cls-3" d="M457.65,713.99c1.15-.27,2.31-1.06,2.7,1.1.2,1.12.88,2.53,2.52,2.62"/>
  <path class="cls-3" d="M638.67,418.25c-1.4-.72-2.62-2.19-4.47-1.12"/>
  <path class="cls-3" d="M66.93,650.67c-1.57,1.22-2.5,2.97-3.72,4.47"/>
  <path class="cls-3" d="M433.81,613.8c-1.32.63-2.73.29-4.1.37"/>
  <path class="cls-3" d="M307.54,731.5c1.16,3.62-.18,5.17-4.84,5.59"/>
  <path class="cls-3" d="M386.5,737.46c1.32.63,2.73.29,4.1.37"/>
  <path class="cls-3" d="M393.21,730.38c.62,0,1.27-.12,1.86.02,3.24.81,4.42-1.18,5.22-3.75"/>
  <path class="cls-3" d="M36.38,722.93c-1.19.97-2.77.89-4.1,1.49"/>
  <path class="cls-3" d="M127.27,225.31c-.49,1.64-2.87,1.78-2.98,3.72"/>
  <path class="cls-3" d="M455.78,380.63c.42,1.34,1.66,2.27,1.86,3.72"/>
  <path class="cls-3" d="M447.96,674.14c4.17.03,1.82,3.08,2.23,4.84"/>
  <path class="cls-3" d="M332.87,643.97c-1.25.8-2.68,1.14-4.1,1.49"/>
  <path class="cls-3" d="M384.64,711.01c-.59,1.33-1.56,2.53-1.49,4.1"/>
  <path class="cls-3" d="M408.48,703.56c-2.19,1.41-.39,3.89-1.49,5.59"/>
  <path class="cls-3" d="M274.39,774.33c-1.41.52-3.23.15-4.1,1.86"/>
  <path class="cls-3" d="M429.71,363.13c-.69,1.37-.45,2.73,0,4.1"/>
  <path class="cls-3" d="M714.65,502.8c-1.37.21-2.91-.48-4.1.74"/>
  <path class="cls-3" d="M423.38,696.11c2.02,5.61-1.51,9.1-4.84,12.66"/>
  <path class="cls-3" d="M827.88,738.2c-.74,1.24-1.49,2.48-2.23,3.72"/>
  <path class="cls-3" d="M432.69,706.92c-2.9,2.39-1.66,5.98-2.61,8.94"/>
  <path class="cls-3" d="M756.37,837.28c-.24,1.98,1.33,2.14,2.61,2.61"/>
  <path class="cls-3" d="M450.94,689.04c.78,2.03.51,4.51,2.61,5.96"/>
  <path class="cls-3" d="M616.32,603.74c-1.18-.79-2.49-.17-3.72-.37"/>
  <path class="cls-3" d="M382.03,707.66c1.12,3.51,4.01,3.01,6.7,2.98"/>
  <path class="cls-3" d="M436.42,525.52c-.07,1.31,1.94,2.19.74,3.72"/>
  <path class="cls-3" d="M441.63,681.21c1.01.9-.52,2.66,1.12,3.35"/>
  <path class="cls-3" d="M130.99,221.59c-.48,1.5-2.29,1.68-2.98,2.98"/>
  <path class="cls-3" d="M439.02,543.77c.25,1.24.5,2.48.74,3.72"/>
  <path class="cls-3" d="M859.17,531.86c2.85.57,2.57,3.83,4.47,5.21"/>
  <path class="cls-3" d="M378.68,591.08c.66.29,1.6.36.77,1.5-.74,1.02-.96,2.12.35,2.96"/>
  <path class="cls-3" d="M329.89,604.11c-1.82,3.05.87,5.24,1.49,7.82"/>
  <path class="cls-3" d="M472.92,651.04c-.03,1.87.25,3.76-1.17,5.96h4.52"/>
  <path class="cls-3" d="M839.8,718.09c-.37,1.28-.77,2.52-2.23,2.98"/>
  <path class="cls-3" d="M518.36,635.77c1.3,2.67-.69,4.38-1.86,6.33"/>
  <path class="cls-3" d="M441.26,689.78c.13,1.65,2.8-.25,2.61,1.86"/>
  <path class="cls-3" d="M421.14,737.46c.56,1.07.33,2.23.37,3.35"/>
  <path class="cls-3" d="M335.48,324.76c-.58,1.04-.89,2.15-.74,3.35"/>
  <path class="cls-3" d="M528.04,588.47c.02,2.9-1.85,3.19-4.1,2.98"/>
  <path class="cls-3" d="M413.69,607.84c-1.56,1.87-4.42.31-5.96,2.23"/>
  <path class="cls-3" d="M512.77,549.73c-.32-.99-.87-1.69-1.84-.72-.79.79-1.69.72-2.63.72"/>
  <path class="cls-3" d="M837.19,379.52c-1.27-.84-2.14-.13-2.98.74"/>
  <path class="cls-3" d="M442.75,527.39c-2.3,1.76-1.95,4.64.75,5.95.45.22.99.26,1.48.39"/>
  <path class="cls-3" d="M664.74,914.01c-1.57-.75-1.23,1.38-2.23,1.49"/>
  <path class="cls-3" d="M607.01,532.6c.12.99.25,1.99.37,2.98"/>
  <path class="cls-3" d="M561.94,936.36c-1.55.13-2.86,1.24-4.47,1.12"/>
  <path class="cls-3" d="M192.45,635.4c.49,3.01,2.76,1.77,4.47,1.86"/>
  <path class="cls-3" d="M336.97,585.49c-.16-1.15-1.1-1.42-1.84-1.07-2.19,1.04-3.52-.17-4.86-1.54"/>
  <path class="cls-3" d="M191.33,173.17c-1.03.71-2.16,1.31-2.61,2.61"/>
  <path class="cls-3" d="M316.85,110.97c-1.1-.19-1.97.57-2.98.74"/>
  <path class="cls-3" d="M460.25,718.46c-.74.87-1.49,1.74-2.23,2.61"/>
  <path class="cls-3" d="M441.26,636.15c-.29,1.92.16,4.25-2.61,4.84"/>
  <path class="cls-3" d="M874.81,528.88c-.18.91,2.29,1.45.37,2.61.94.63-.36,2.21,1.12,2.61"/>
  <path class="cls-3" d="M289.1,286.21c-1.1-.65-1.85.43-2.79.56"/>
  <path class="cls-3" d="M614.83,573.57c-.31.73.76,1.91-.74,2.23"/>
  <path class="cls-3" d="M306.8,699.09c.62,1.32,2.3,2.26,1.49,4.1"/>
  <path class="cls-3" d="M475.52,661.1c-1.16-.04-2.29.08-3.4-.67-.52-.35-1.86-.44-1.81,1.05"/>
  <path class="cls-3" d="M609.24,439.11c-1.24.1-1.37,1.76-2.61,1.86"/>
  <path class="cls-3" d="M403.64,705.43c.59,1.76.59,3.31-1.49,4.1"/>
  <path class="cls-3" d="M538.1,658.49c-1.9,1.52-4.04-.89-5.96.37"/>
  <path class="cls-3" d="M462.12,680.1c-.81.53-1.73.33-2.61.37"/>
  <path class="cls-3" d="M459.51,385.85c.05.91-.32,2.02,1.12,2.23"/>
  <path class="cls-3" d="M323.18,633.17c-.05,1.37.2,2.77-.37,4.1"/>
  <path class="cls-3" d="M443.49,669.3c-1.95-.44-2.57,1.35-3.72,2.23"/>
  <path class="cls-3" d="M626.75,600.39c-.74-1.86-1.49.37-2.23,0"/>
  <path class="cls-3" d="M416.67,617.15c1.68,1.02.61,3.64,2.61,4.47"/>
  <path class="cls-3" d="M417.79,704.31c-.81.4.06,1.46-.74,1.86"/>
  <path class="cls-3" d="M447.22,643.97c.37.25.74.5,1.12.74"/>
  <path class="cls-3" d="M377.94,326.25c2.44.16.15,1.26.37,1.86"/>
  <path class="cls-3" d="M411.09,629.07c-.25.37-.5.74-.74,1.12"/>
  <text class="cls-2" transform="translate(443.88 187)"><tspan x="0" y="0">R</tspan></text>
  <text class="cls-2" transform="translate(544.55 254.09)"><tspan x="0" y="0">&amp;</tspan></text>
  <text class="cls-2" transform="translate(649.56 327.77)"><tspan x="0" y="0">A</tspan></text>
  <text class="cls-1" transform="translate(299.43 938.61)"><tspan x="0" y="0">New Mexico 2025</tspan></text>
</svg>